<svg width="31" height="30" viewBox="0 0 31 30" fill="none" xmlns="http://www.w3.org/2000/svg">
<g clip-path="url(#clip0_195_5100)">
<path d="M15.3572 9.125H15.4462C16.2682 9.128 20.4335 9.158 21.5566 9.46002C21.8961 9.5522 22.2054 9.73186 22.4538 9.98106C22.7021 10.2303 22.8807 10.5403 22.9716 10.8801C23.0727 11.2601 23.1437 11.7632 23.1917 12.2822L23.2017 12.3862L23.2237 12.6462L23.2317 12.7502C23.2967 13.6643 23.3047 14.5203 23.3057 14.7073V14.7824C23.3047 14.9764 23.2957 15.8904 23.2237 16.8425L23.2157 16.9475L23.2067 17.0515C23.1567 17.6235 23.0827 18.1916 22.9716 18.6096C22.8809 18.9496 22.7025 19.2597 22.4541 19.509C22.2057 19.7582 21.8962 19.9378 21.5566 20.0297C20.3965 20.3417 15.9872 20.3637 15.3762 20.3647H15.2342C14.9251 20.3647 13.6471 20.3587 12.307 20.3127L12.137 20.3067L12.05 20.3027L11.879 20.2957L11.7079 20.2887C10.5979 20.2397 9.5408 20.1607 9.05377 20.0287C8.71424 19.9369 8.4048 19.7574 8.15644 19.5084C7.90809 19.2593 7.72954 18.9494 7.63868 18.6096C7.52768 18.1926 7.45367 17.6235 7.40367 17.0515L7.39567 16.9465L7.38767 16.8425C7.33831 16.1648 7.31096 15.4858 7.30566 14.8064L7.30566 14.6833C7.30766 14.4683 7.31566 13.7253 7.36967 12.9052L7.37667 12.8022L7.37967 12.7502L7.38767 12.6462L7.40967 12.3862L7.41967 12.2822C7.46767 11.7632 7.53868 11.2591 7.63968 10.8801C7.73038 10.5401 7.90886 10.23 8.15723 9.98074C8.4056 9.73149 8.71512 9.55192 9.05477 9.46002C9.5418 9.33001 10.5989 9.25001 11.7089 9.2L11.879 9.193L12.051 9.187L12.137 9.184L12.308 9.177C13.2597 9.14638 14.2119 9.12937 15.1642 9.126H15.3572V9.125ZM13.7061 12.3352V17.1535L17.8633 14.7454L13.7061 12.3352Z" fill="white"/>
</g>
<circle opacity="0.5" cx="15.3057" cy="15.001" r="14.5" stroke="white"/>
<defs>
<clipPath id="clip0_195_5100">
<rect width="17" height="17" fill="white" transform="translate(7.30566 7.00098)"/>
</clipPath>
</defs>
</svg>
