<svg width="31" height="30" viewBox="0 0 31 30" fill="none" xmlns="http://www.w3.org/2000/svg">
<g clip-path="url(#clip0_1_2)">
<path d="M15.3 29.5C23.3081 29.5 29.8 23.0081 29.8 15C29.8 6.99187 23.3081 0.5 15.3 0.5C7.29186 0.5 0.799988 6.99187 0.799988 15C0.799988 23.0081 7.29186 29.5 15.3 29.5Z" stroke="white" stroke-opacity="0.5"/>
<path d="M16.5 13.2C16.4 13.2 16.2 13.3 16.2 13.5V14.7L15.2 13.4C15.2 13.3 15.1 13.3 15 13.3H14.9C14.8 13.3 14.7 13.4 14.7 13.5V15.4C14.7 15.5 14.7 15.5 14.8 15.6C14.8 15.6 14.9 15.7 15 15.7C15.1 15.7 15.1 15.7 15.2 15.6C15.2 15.6 15.3 15.5 15.3 15.4V14.2L16.3 15.5L16.4 15.6H16.5C16.6 15.6 16.6 15.6 16.7 15.5C16.7 15.5 16.8 15.4 16.8 15.3V13.4C16.7 13.3 16.6 13.2 16.5 13.2ZM14.1 13.2C14 13.2 13.8 13.3 13.8 13.5V15.4C13.8 15.5 13.8 15.5 13.9 15.6C13.9 15.6 14 15.7 14.1 15.7C14.2 15.7 14.2 15.7 14.3 15.6C14.3 15.6 14.4 15.5 14.4 15.4V13.5C14.4 13.3 14.3 13.2 14.1 13.2ZM18.5 15.2C18.5 15.1 18.5 15.1 18.5 15.2C18.4 15.1 18.3 15.1 18.3 15.1H17.6V14.6H18.4C18.4 14.6 18.5 14.6 18.5 14.5C18.5 14.4 18.5 14.4 18.6 14.4C18.7 14.4 18.6 14.3 18.6 14.3V14.2C18.6 14.2 18.6 14.1 18.5 14.1C18.4 14.1 18.4 14.1 18.4 14H17.6V13.5H18.3C18.4 13.5 18.4 13.5 18.5 13.4C18.5 13.4 18.6 13.3 18.6 13.2C18.6 13.1 18.6 13.1 18.5 13C18.5 13 18.4 12.9 18.3 12.9H17.3C17.2 12.9 17 13 17 13.2V15.1C17 15.2 17 15.2 17.1 15.3C17.1 15.3 17.2 15.4 17.3 15.4H18.4C18.4 15.4 18.5 15.4 18.5 15.3C18.5 15.3 18.5 15.2 18.6 15.2V15.1C18.6 15.3 18.6 15.3 18.5 15.2ZM13.4 15.1H12.7V13.4C12.7 13.3 12.6 13.1 12.4 13.1C12.3 13.1 12.1 13.2 12.1 13.4V15.3C12.1 15.4 12.1 15.4 12.2 15.5C12.2 15.5 12.3 15.6 12.4 15.6H13.4C13.5 15.6 13.5 15.6 13.6 15.5C13.6 15.5 13.7 15.4 13.7 15.3C13.7 15.2 13.7 15.2 13.6 15.1H13.4Z" fill="white"/>
<path d="M19.3 7H11.3C9.09999 7 7.29999 8.8 7.29999 11V19C7.29999 21.2 9.09999 23 11.3 23H19.3C21.5 23 23.3 21.2 23.3 19V11C23.3 8.8 21.5 7 19.3 7ZM19.2 16.7C18.2 17.9 15.9 19.3 15.3 19.5C14.8 19.7 14.9 19.4 14.9 19.2L15 18.8V18.4C14.9 18.3 14.7 18.2 14.6 18.2C12.2 17.9 10.5 16.3 10.5 14.3C10.5 12.1 12.7 10.4 15.4 10.4C18.1 10.4 20.3 12.2 20.3 14.3C20.2 15.2 19.9 16 19.2 16.7Z" fill="white"/>
</g>
<defs>
<clipPath id="clip0_1_2">
<rect width="31" height="30" fill="white"/>
</clipPath>
</defs>
</svg>
