<svg width="28" height="28" viewBox="0 0 28 28" fill="none" xmlns="http://www.w3.org/2000/svg">
<circle cx="14" cy="14" r="14" fill="white"/>
<path d="M27.628 15.2188H18.6162L18.7511 14.7155H27.7624" fill="#D7000F"/>
<path d="M27.355 16.2254H18.3428L18.4775 15.7223H27.4894" fill="#D7000F"/>
<path d="M27.0847 17.2346H18.0718L18.2077 16.7311H27.2201" fill="#D7000F"/>
<path d="M8.20071 10.3064C8.24552 10.1348 8.23692 10.0102 8.17249 9.93167C8.10851 9.85273 7.99007 9.81356 7.81248 9.81356C7.62161 9.81356 7.47721 9.84955 7.38034 9.92154C7.28378 9.99352 7.21105 10.1221 7.1602 10.3064L6.85164 11.5941H3.79969L3.93051 10.9759C4.18007 10.0386 4.63665 9.37454 5.29858 8.98407C5.95916 8.59496 6.9381 8.40002 8.23511 8.40002C9.44717 8.40002 10.3015 8.59088 10.7999 8.97303C11.2961 9.35518 11.4416 9.93167 11.2349 10.7054C10.9928 11.6083 9.93543 12.7899 8.06068 14.2503C7.69569 14.5387 7.42003 14.7583 7.23444 14.9068C6.56104 15.4423 5.91389 16.012 5.66508 16.353C5.45807 16.6364 5.36542 16.8502 5.36542 16.8502L9.61299 16.8511L9.14193 18.6142H1.8667L2.30608 16.9685C2.41502 16.5597 2.63561 16.1544 2.9668 15.7508C3.2986 15.347 3.90003 14.8011 4.76913 14.1115C4.96528 13.958 5.24487 13.7413 5.6085 13.4606C7.08053 12.3155 7.8763 11.523 7.99294 11.0852" fill="#D7000F"/>
<path d="M13.1487 18.6119L13.786 16.2251H9.36328L9.76584 14.7145L14.1765 8.61255H18.3654L16.8688 14.2097L14.3446 14.2122L15.7314 10.2168H15.4349L12.4854 14.7136L18.215 14.7145L17.8119 16.2251H16.3301L15.6913 18.6119" fill="#D7000F"/>
<path d="M18.8843 14.2101L20.3812 8.61255H23.1012L22.3832 11.2993H22.426C22.7041 11.0172 23.0172 10.8097 23.368 10.6755C23.7191 10.5421 24.1138 10.4758 24.5565 10.4758C25.1505 10.4758 25.5679 10.5897 25.8027 10.8187C26.0391 11.0482 26.0963 11.3899 25.9756 11.8442L25.3437 14.2101H22.5995L23.0762 12.4255C23.1263 12.2411 23.1222 12.1165 23.0655 12.0507C23.0093 11.9854 22.8892 11.9526 22.7059 11.9526C22.5361 11.9526 22.4007 11.9907 22.2991 12.0672C22.1976 12.1448 22.1253 12.264 22.0817 12.4255L21.6044 14.2101" fill="#D7000F"/>
</svg>
