<svg width="228" height="17" viewBox="0 0 228 17" fill="none" xmlns="http://www.w3.org/2000/svg">
<path d="M7.936 3.24C6.608 5.128 4.16 7.288 1.536 8.744C1.28 8.296 0.736 7.592 0.32 7.192C3.072 5.8 5.664 3.336 6.848 1.352H8.848C10.56 3.816 13.168 5.912 15.712 7C15.232 7.496 14.8 8.136 14.448 8.728C11.984 7.368 9.296 5.144 7.936 3.24ZM2.496 10.744H13.44V12.408H2.496V10.744ZM3.312 7.208H12.704V8.888H3.312V7.208ZM1.216 14.344H14.88V16.056H1.216V14.344ZM6.928 7.96H8.96V15.304H6.928V7.96ZM19.504 13.928H28.336V15.784H19.504V13.928ZM18.64 9.336H29.344V16.424H27.28V11.176H20.608V16.424H18.64V9.336ZM21.776 1.288L23.968 2.008C22.928 3.992 21.568 6.136 20.48 7.528L18.752 6.84C19.824 5.384 21.088 3.08 21.776 1.288ZM25.616 4.152L27.136 3.032C28.72 4.312 30.64 6.168 31.472 7.544L29.792 8.824C29.04 7.48 27.216 5.528 25.616 4.152ZM16.944 5.944C20.176 5.864 25.136 5.672 29.536 5.48L29.44 7.336C25.008 7.576 20.208 7.768 17.056 7.896L16.944 5.944ZM40.144 1.688H42.944V2.6H40.144V1.688ZM40.032 4.408H43.088V5.288H40.032V4.408ZM40.032 5.656H43.088V6.536H40.032V5.656ZM37.792 12.984H45.696V14.136H37.792V12.984ZM39.568 3H43.408V4.008H39.568V3ZM41.12 7.832V8.52H41.92V7.832H41.12ZM40.016 6.968H43.088V9.384H40.016V6.968ZM37.984 11.384H44.32V10.872H36.96V9.8H46.096V12.456H37.984V11.384ZM37.344 5.96H38.56V9.544H37.344V5.96ZM35.744 5.352C36.704 5.32 37.984 5.272 39.328 5.208L39.312 6.28C38.096 6.376 36.912 6.456 35.872 6.52L35.744 5.352ZM37.456 11.384H39.216C38.96 12.488 38.656 13.752 38.384 14.616L36.656 14.392C36.944 13.56 37.248 12.36 37.456 11.384ZM45.088 12.984H46.88C46.88 12.984 46.848 13.432 46.768 13.656C46.528 14.952 46.24 15.656 45.808 16.008C45.408 16.328 44.96 16.408 44.32 16.424C43.792 16.44 42.816 16.44 41.808 16.392C41.776 15.976 41.568 15.384 41.296 15C42.256 15.08 43.312 15.096 43.728 15.096C44.048 15.096 44.24 15.08 44.416 14.968C44.672 14.792 44.896 14.232 45.072 13.176L45.088 12.984ZM38.608 7.064L39.536 6.84C39.712 7.384 39.888 8.104 39.952 8.552L38.992 8.808C38.928 8.344 38.768 7.624 38.608 7.064ZM38.624 4.824L39.44 4.52C39.712 5.112 39.936 5.88 40 6.392L39.104 6.728C39.072 6.216 38.864 5.432 38.624 4.824ZM35.92 3.624L36.528 2.68C37.168 3.096 37.856 3.672 38.176 4.088L37.504 5.144C37.184 4.712 36.512 4.056 35.92 3.624ZM37.488 1.352L38.592 1.896C38.128 2.616 37.68 3.384 37.28 3.88L36.448 3.432C36.8 2.872 37.264 1.96 37.488 1.352ZM38.592 2.728L39.648 3.336C38.88 4.312 37.968 5.448 37.232 6.168L36.448 5.64C37.168 4.888 38.08 3.624 38.592 2.728ZM36.304 6.792L37.408 7.048C37.232 7.864 36.912 8.76 36.56 9.352C36.336 9.208 35.824 8.984 35.552 8.856C35.904 8.28 36.144 7.512 36.304 6.792ZM44.688 5.96H45.92V9.544H44.688V5.96ZM43.2 5.352C44.192 5.336 45.472 5.304 46.864 5.24L46.848 6.312C45.584 6.392 44.352 6.456 43.312 6.52L43.2 5.352ZM45.968 7.08L46.912 6.776C47.216 7.432 47.504 8.264 47.632 8.824L46.624 9.16C46.528 8.6 46.24 7.72 45.968 7.08ZM45.936 4.76L46.848 4.376C47.168 4.968 47.472 5.768 47.584 6.296L46.624 6.728C46.528 6.184 46.24 5.368 45.936 4.76ZM43.152 3.624L43.808 2.712C44.368 3.112 44.976 3.656 45.264 4.056L44.544 5.08C44.256 4.648 43.68 4.04 43.152 3.624ZM44.768 1.384L45.856 1.944C45.392 2.648 44.896 3.432 44.496 3.928L43.664 3.464C44.032 2.92 44.512 2.008 44.768 1.384ZM45.952 2.664L47.008 3.272C46.224 4.248 45.264 5.384 44.496 6.104L43.728 5.576C44.448 4.824 45.424 3.56 45.952 2.664ZM43.648 6.792L44.752 7.048C44.576 7.864 44.272 8.76 43.952 9.336C43.728 9.176 43.248 8.92 42.96 8.792C43.296 8.216 43.504 7.48 43.648 6.792ZM32.704 2.904L33.792 1.624C34.592 2.04 35.616 2.712 36.128 3.24L34.96 4.68C34.512 4.136 33.504 3.4 32.704 2.904ZM32.368 7.16L33.424 5.832C34.224 6.216 35.28 6.84 35.792 7.336L34.688 8.792C34.224 8.312 33.168 7.592 32.368 7.16ZM32.72 15.288C33.312 14.04 34.128 12.008 34.736 10.136L36.256 11.112C35.728 12.824 35.072 14.696 34.432 16.264L32.72 15.288ZM48.66 15V12.9L54.06 7.8C54.4867 7.41333 54.8 7.06667 55 6.76C55.2 6.45333 55.3333 6.17333 55.4 5.92C55.48 5.66667 55.52 5.43333 55.52 5.22C55.52 4.66 55.3267 4.23333 54.94 3.94C54.5667 3.63333 54.0133 3.48 53.28 3.48C52.6933 3.48 52.1467 3.59333 51.64 3.82C51.1467 4.04667 50.7267 4.4 50.38 4.88L48.02 3.36C48.5533 2.56 49.3 1.92667 50.26 1.46C51.22 0.993333 52.3267 0.76 53.58 0.76C54.62 0.76 55.5267 0.933333 56.3 1.28C57.0867 1.61333 57.6933 2.08667 58.12 2.7C58.56 3.31333 58.78 4.04667 58.78 4.9C58.78 5.35333 58.72 5.80667 58.6 6.26C58.4933 6.7 58.2667 7.16667 57.92 7.66C57.5867 8.15333 57.0933 8.70667 56.44 9.32L51.96 13.54L51.34 12.36H59.24V15H48.66ZM60.202 12.06V9.88L66.802 0.999999H70.202L63.742 9.88L62.162 9.42H73.182V12.06H60.202ZM67.742 15V12.06L67.842 9.42V6.8H70.902V15H67.742ZM80.3631 1.64H82.4751V14.04C82.4751 15.224 82.2031 15.752 81.4671 16.056C80.7311 16.376 79.6271 16.44 78.0591 16.424C77.9631 15.864 77.5951 14.952 77.2911 14.424C78.3471 14.488 79.5471 14.472 79.8831 14.456C80.2351 14.456 80.3631 14.344 80.3631 14.024V1.64ZM84.2191 5.848L86.0911 5.144C87.4031 7.4 88.7311 10.328 89.1311 12.328L87.0351 13.16C86.6991 11.224 85.4831 8.2 84.2191 5.848ZM76.1711 5.304L78.3631 5.672C77.8191 8.088 76.9391 11.08 75.5951 12.856C75.1311 12.504 74.2511 12.056 73.7231 11.848C75.0191 10.216 75.8351 7.4 76.1711 5.304ZM96.2191 3.112H104.395V4.776H96.2191V3.112ZM95.6751 6.184H104.875V7.88H95.6751V6.184ZM95.7071 9.24H104.763V10.92H95.7071V9.24ZM99.3071 1.4H101.195V7.272H99.3071V1.4ZM101.339 7.784H103.211V14.408C103.211 15.336 103.035 15.832 102.411 16.104C101.771 16.392 100.907 16.424 99.7071 16.424C99.6431 15.896 99.3551 15.128 99.0991 14.632C99.8831 14.664 100.763 14.664 101.003 14.648C101.259 14.648 101.339 14.6 101.339 14.376V7.784ZM96.3471 11.992L97.8831 11.112C98.6351 11.896 99.4831 12.952 99.8351 13.736L98.1871 14.696C97.8831 13.944 97.0831 12.808 96.3471 11.992ZM91.2751 2.392H95.4031V13.336H91.2751V11.624H93.6111V4.104H91.2751V2.392ZM91.3711 6.936H94.4751V8.616H91.3711V6.936ZM90.3791 2.392H92.1551V14.76H90.3791V2.392ZM106.027 2.424H114.187V4.136H106.027V2.424ZM106.507 10.04H113.691V11.752H106.507V10.04ZM109.163 8.488H111.067V14.52L109.163 14.808V8.488ZM105.851 14.152C107.979 13.96 111.227 13.576 114.219 13.224L114.267 15.016C111.403 15.4 108.331 15.8 106.139 16.072L105.851 14.152ZM105.995 6.552C107.835 6.52 110.619 6.44 113.291 6.344L113.243 7.992C110.699 8.136 108.027 8.248 106.107 8.328L105.995 6.552ZM110.907 5.16L112.331 4.408C113.227 5.496 114.251 6.968 114.651 7.976L113.131 8.84C112.763 7.848 111.787 6.296 110.907 5.16ZM108.299 3.464L110.379 3.896C109.819 5.256 109.195 6.792 108.667 7.784L107.051 7.352C107.515 6.296 108.043 4.648 108.299 3.464ZM114.779 3.368H116.619V12.424H114.779V3.368ZM118.427 1.864H120.299V14.152C120.299 15.24 120.091 15.768 119.451 16.072C118.811 16.376 117.771 16.44 116.411 16.44C116.331 15.896 116.059 15.032 115.787 14.488C116.747 14.536 117.723 14.52 118.043 14.52C118.331 14.504 118.427 14.424 118.427 14.136V1.864ZM126.235 1.288L127.963 1.944C126.715 3.512 124.747 5 123.035 5.896C122.731 5.544 122.075 4.84 121.675 4.52C123.403 3.784 125.195 2.584 126.235 1.288ZM134.363 1.864L135.739 3.112C134.059 3.704 131.771 4.12 129.803 4.376C129.723 4.008 129.499 3.416 129.307 3.064C131.131 2.776 133.163 2.328 134.363 1.864ZM128.667 1.528H130.523V4.616C130.523 5.096 130.651 5.176 131.515 5.176C131.899 5.176 133.595 5.176 134.107 5.176C134.747 5.176 134.875 5 134.939 4.04C135.323 4.296 136.075 4.552 136.571 4.648C136.363 6.296 135.835 6.728 134.283 6.728C133.803 6.728 131.771 6.728 131.323 6.728C129.195 6.728 128.667 6.248 128.667 4.616V1.528ZM125.963 10.12V10.808H132.923V10.12H125.963ZM125.963 11.896V12.6H132.923V11.896H125.963ZM125.963 8.36V9.032H132.923V8.36H125.963ZM124.107 7.208H134.859V13.736H124.107V7.208ZM130.267 14.568L131.867 13.656C133.547 14.264 135.531 15.064 136.667 15.624L134.427 16.488C133.531 15.944 131.883 15.176 130.267 14.568ZM126.715 13.608L128.475 14.392C127.163 15.24 125.083 16.04 123.451 16.504C123.115 16.12 122.459 15.416 122.027 15.096C123.723 14.776 125.627 14.216 126.715 13.608ZM124.747 3.848L125.963 2.648L126.587 2.824V6.808H124.747V3.848ZM155.812 8.296H157.54V14.088H155.812V8.296ZM155.812 5.256H157.54V8.072H155.812V5.256ZM152.244 11.32H160.98V12.616H152.244V11.32ZM153.812 9.208H160.388V10.472H153.812V9.208ZM153.044 5.512H155.364V6.488H153.044V5.512ZM158.02 5.512H160.484V6.488H158.02V5.512ZM153.028 6.968H155.38V7.944H153.028V6.968ZM158.02 6.968H160.516V7.944H158.02V6.968ZM151.924 1.848H160.548V5.016H151.924V3.784H158.772V3.08H151.924V1.848ZM150.932 1.848H152.628V5.864C152.628 8.12 152.42 11.368 151.124 13.496C150.82 13.208 150.052 12.728 149.636 12.568C150.82 10.616 150.932 7.848 150.932 5.848V1.848ZM153.636 8.248L155.076 8.568C154.788 9.592 154.26 10.664 153.732 11.336C153.428 11.128 152.772 10.84 152.388 10.696C152.948 10.04 153.38 9.128 153.636 8.248ZM149.908 8.696V13.768H148.052V10.456H146.276V8.696H149.908ZM149.908 12.824C150.564 13.88 151.78 14.344 153.476 14.408C155.38 14.504 159.092 14.456 161.268 14.28C161.044 14.712 160.756 15.576 160.676 16.12C158.724 16.216 155.396 16.248 153.476 16.168C151.476 16.088 150.132 15.624 149.108 14.376C148.452 15.016 147.764 15.624 146.948 16.312L146.036 14.424C146.74 13.976 147.54 13.416 148.244 12.824H149.908ZM146.884 2.68L148.164 1.528C149.044 2.04 150.132 2.84 150.644 3.432L149.284 4.696C148.82 4.088 147.764 3.24 146.884 2.68ZM146.308 5.928L147.556 4.744C148.452 5.224 149.588 5.976 150.132 6.584L148.82 7.88C148.324 7.304 147.22 6.456 146.308 5.928ZM162.34 2.424H170.5V4.136H162.34V2.424ZM162.82 10.04H170.004V11.752H162.82V10.04ZM165.476 8.488H167.38V14.52L165.476 14.808V8.488ZM162.164 14.152C164.292 13.96 167.54 13.576 170.532 13.224L170.58 15.016C167.716 15.4 164.644 15.8 162.452 16.072L162.164 14.152ZM162.308 6.552C164.148 6.52 166.932 6.44 169.604 6.344L169.556 7.992C167.012 8.136 164.34 8.248 162.42 8.328L162.308 6.552ZM167.22 5.16L168.644 4.408C169.54 5.496 170.564 6.968 170.964 7.976L169.444 8.84C169.076 7.848 168.1 6.296 167.22 5.16ZM164.612 3.464L166.692 3.896C166.132 5.256 165.508 6.792 164.98 7.784L163.364 7.352C163.828 6.296 164.356 4.648 164.612 3.464ZM171.092 3.368H172.932V12.424H171.092V3.368ZM174.74 1.864H176.612V14.152C176.612 15.24 176.404 15.768 175.764 16.072C175.124 16.376 174.084 16.44 172.724 16.44C172.644 15.896 172.372 15.032 172.1 14.488C173.06 14.536 174.036 14.52 174.356 14.52C174.644 14.504 174.74 14.424 174.74 14.136V1.864ZM185.844 6.552H191.14V8.28H185.844V6.552ZM186.02 13.88H191.364V15.576H186.02V13.88ZM188.388 3.576C187.524 5.016 186.052 6.888 184.452 8.104C184.212 7.592 183.732 6.856 183.364 6.44C184.996 5.272 186.628 3.16 187.396 1.656H189.22C190.324 3.336 191.94 5.256 193.492 6.232C193.092 6.712 192.644 7.416 192.324 8.008C190.884 6.888 189.268 4.968 188.388 3.576ZM185.012 9.704H192.148V16.36H190.308V11.4H186.772V16.424H185.012V9.704ZM180.564 1.432L182.228 2.056C181.572 3.272 180.836 4.696 180.212 5.592L178.932 5.032C179.508 4.088 180.196 2.552 180.564 1.432ZM182.404 3.32L183.956 4.024C182.804 5.864 181.236 8.088 180.02 9.48L178.916 8.856C180.1 7.4 181.572 5.048 182.404 3.32ZM178.1 5.224L179.012 3.912C179.86 4.648 180.852 5.656 181.268 6.392L180.276 7.88C179.892 7.112 178.916 5.992 178.1 5.224ZM181.924 7.144L183.188 6.616C183.812 7.688 184.42 9.096 184.612 10.024L183.252 10.632C183.076 9.704 182.532 8.248 181.924 7.144ZM178.084 8.472C179.556 8.424 181.716 8.344 183.828 8.248L183.812 9.768C181.844 9.912 179.796 10.04 178.244 10.152L178.084 8.472ZM182.276 11.128L183.62 10.696C184.02 11.608 184.436 12.808 184.612 13.608L183.204 14.104C183.044 13.304 182.628 12.072 182.276 11.128ZM178.772 10.824L180.356 11.096C180.196 12.632 179.844 14.232 179.38 15.256C179.044 15.048 178.324 14.712 177.924 14.552C178.388 13.608 178.644 12.184 178.772 10.824ZM180.564 9.32H182.244V16.456H180.564V9.32ZM196.624 15V2.2L198.024 3.6H193.824V0.999999H199.864V15H196.624ZM208.296 15.24C207.149 15.24 206.122 14.96 205.216 14.4C204.309 13.8267 203.596 13 203.076 11.92C202.556 10.84 202.296 9.53333 202.296 8C202.296 6.46667 202.556 5.16 203.076 4.08C203.596 3 204.309 2.18 205.216 1.62C206.122 1.04667 207.149 0.76 208.296 0.76C209.456 0.76 210.482 1.04667 211.376 1.62C212.282 2.18 212.996 3 213.516 4.08C214.036 5.16 214.296 6.46667 214.296 8C214.296 9.53333 214.036 10.84 213.516 11.92C212.996 13 212.282 13.8267 211.376 14.4C210.482 14.96 209.456 15.24 208.296 15.24ZM208.296 12.5C208.842 12.5 209.316 12.3467 209.716 12.04C210.129 11.7333 210.449 11.2467 210.676 10.58C210.916 9.91333 211.036 9.05333 211.036 8C211.036 6.94667 210.916 6.08667 210.676 5.42C210.449 4.75333 210.129 4.26667 209.716 3.96C209.316 3.65333 208.842 3.5 208.296 3.5C207.762 3.5 207.289 3.65333 206.876 3.96C206.476 4.26667 206.156 4.75333 205.916 5.42C205.689 6.08667 205.576 6.94667 205.576 8C205.576 9.05333 205.689 9.91333 205.916 10.58C206.156 11.2467 206.476 11.7333 206.876 12.04C207.289 12.3467 207.762 12.5 208.296 12.5ZM221.87 15.24C220.723 15.24 219.697 14.96 218.79 14.4C217.883 13.8267 217.17 13 216.65 11.92C216.13 10.84 215.87 9.53333 215.87 8C215.87 6.46667 216.13 5.16 216.65 4.08C217.17 3 217.883 2.18 218.79 1.62C219.697 1.04667 220.723 0.76 221.87 0.76C223.03 0.76 224.057 1.04667 224.95 1.62C225.857 2.18 226.57 3 227.09 4.08C227.61 5.16 227.87 6.46667 227.87 8C227.87 9.53333 227.61 10.84 227.09 11.92C226.57 13 225.857 13.8267 224.95 14.4C224.057 14.96 223.03 15.24 221.87 15.24ZM221.87 12.5C222.417 12.5 222.89 12.3467 223.29 12.04C223.703 11.7333 224.023 11.2467 224.25 10.58C224.49 9.91333 224.61 9.05333 224.61 8C224.61 6.94667 224.49 6.08667 224.25 5.42C224.023 4.75333 223.703 4.26667 223.29 3.96C222.89 3.65333 222.417 3.5 221.87 3.5C221.337 3.5 220.863 3.65333 220.45 3.96C220.05 4.26667 219.73 4.75333 219.49 5.42C219.263 6.08667 219.15 6.94667 219.15 8C219.15 9.05333 219.263 9.91333 219.49 10.58C219.73 11.2467 220.05 11.7333 220.45 12.04C220.863 12.3467 221.337 12.5 221.87 12.5Z" fill="white"/>
</svg>
