<svg width="120" height="633" viewBox="0 0 120 633" fill="none" xmlns="http://www.w3.org/2000/svg">
<path d="M0 25.7661C0 22.3226 2.20344 19.2655 5.47018 18.1766L57.4702 0.843273C59.1123 0.295895 60.8877 0.295896 62.5298 0.843274L114.53 18.1766C117.797 19.2655 120 22.3226 120 25.7661V472C120 476.418 116.431 480 112.012 480C99.929 480 76.6485 480 60 480C43.3515 480 20.071 480 7.98753 480C3.56925 480 0 476.418 0 472V25.7661Z" fill="url(#paint0_linear_706_3986)"/>
<path d="M0 178.766C0 175.323 2.20344 172.266 5.47018 171.177L57.4702 153.843C59.1123 153.296 60.8877 153.296 62.5298 153.843L114.53 171.177C117.797 172.266 120 175.323 120 178.766V625C120 629.418 116.431 633 112.012 633C99.929 633 76.6485 633 60 633C43.3515 633 20.071 633 7.98753 633C3.56925 633 0 629.418 0 625V178.766Z" fill="url(#paint1_linear_706_3986)"/>
<defs>
<linearGradient id="paint0_linear_706_3986" x1="120.031" y1="137.508" x2="145.627" y2="39.5069" gradientUnits="userSpaceOnUse">
<stop stop-color="#061438"/>
<stop offset="0.600854" stop-color="#9a9a9aff"/>
<stop offset="1" stop-color="#606060ff"/>
</linearGradient>
</defs>
</svg>
