<svg width="31" height="30" viewBox="0 0 31 30" fill="none" xmlns="http://www.w3.org/2000/svg">
<g clip-path="url(#clip0_195_5090)">
<path fill-rule="evenodd" clip-rule="evenodd" d="M12.2827 7.71197C13.0647 7.67597 13.314 7.66797 15.306 7.66797C17.298 7.66797 17.5473 7.67664 18.3287 7.71197C19.11 7.7473 19.6433 7.87197 20.11 8.05264C20.5987 8.2373 21.042 8.52597 21.4087 8.8993C21.782 9.2653 22.07 9.70797 22.254 10.1973C22.4353 10.664 22.5593 11.1973 22.5953 11.9773C22.6313 12.7606 22.6393 13.01 22.6393 15.0013C22.6393 16.9933 22.6307 17.2426 22.5953 18.0246C22.56 18.8046 22.4353 19.338 22.254 19.8046C22.07 20.294 21.7815 20.7374 21.4087 21.104C21.042 21.4773 20.5987 21.7653 20.11 21.9493C19.6433 22.1306 19.11 22.2546 18.33 22.2906C17.5473 22.3266 17.298 22.3346 15.306 22.3346C13.314 22.3346 13.0647 22.326 12.2827 22.2906C11.5027 22.2553 10.9693 22.1306 10.5027 21.9493C10.0133 21.7653 9.56987 21.4768 9.20332 21.104C8.83024 20.7378 8.54153 20.2946 8.35732 19.8053C8.17666 19.3386 8.05266 18.8053 8.01666 18.0253C7.98066 17.242 7.97266 16.9926 7.97266 15.0013C7.97266 13.0093 7.98132 12.76 8.01666 11.9786C8.05199 11.1973 8.17666 10.664 8.35732 10.1973C8.5418 9.70802 8.83074 9.26484 9.20399 8.89864C9.57002 8.52564 10.013 8.23693 10.502 8.05264C10.9687 7.87197 11.502 7.74797 12.282 7.71197H12.2827ZM18.2693 9.03197C17.496 8.99664 17.264 8.9893 15.306 8.9893C13.348 8.9893 13.116 8.99664 12.3427 9.03197C11.6273 9.06464 11.2393 9.18397 10.9807 9.28464C10.6387 9.41797 10.394 9.57597 10.1373 9.83264C9.89402 10.0693 9.70678 10.3575 9.58932 10.676C9.48866 10.9346 9.36932 11.3226 9.33666 12.038C9.30132 12.8113 9.29399 13.0433 9.29399 15.0013C9.29399 16.9593 9.30132 17.1913 9.33666 17.9646C9.36932 18.68 9.48866 19.068 9.58932 19.3266C9.70666 19.6446 9.89399 19.9333 10.1373 20.17C10.374 20.4133 10.6627 20.6006 10.9807 20.718C11.2393 20.8186 11.6273 20.938 12.3427 20.9706C13.116 21.006 13.3473 21.0133 15.306 21.0133C17.2647 21.0133 17.496 21.006 18.2693 20.9706C18.9847 20.938 19.3727 20.8186 19.6313 20.718C19.9733 20.5846 20.218 20.4266 20.4747 20.17C20.718 19.9333 20.9053 19.6446 21.0227 19.3266C21.1233 19.068 21.2427 18.68 21.2753 17.9646C21.3107 17.1913 21.318 16.9593 21.318 15.0013C21.318 13.0433 21.3107 12.8113 21.2753 12.038C21.2427 11.3226 21.1233 10.9346 21.0227 10.676C20.8893 10.334 20.7313 10.0893 20.4747 9.83264C20.2379 9.58935 19.9498 9.40211 19.6313 9.28464C19.3727 9.18397 18.9847 9.06464 18.2693 9.03197ZM14.3693 17.262C14.8924 17.4797 15.4749 17.5091 16.0173 17.3451C16.5596 17.1811 17.0283 16.8339 17.3431 16.3628C17.6579 15.8917 17.7994 15.3259 17.7434 14.762C17.6873 14.1982 17.4373 13.6713 17.036 13.2713C16.7801 13.0156 16.4708 12.8198 16.1302 12.6981C15.7896 12.5763 15.4263 12.5315 15.0663 12.567C14.7064 12.6026 14.3588 12.7174 14.0485 12.9034C13.7383 13.0894 13.4732 13.3418 13.2722 13.6425C13.0712 13.9433 12.9394 14.2848 12.8863 14.6426C12.8332 15.0004 12.8601 15.3655 12.965 15.7116C13.0699 16.0578 13.2503 16.3764 13.4931 16.6445C13.736 16.9125 14.0352 17.1234 14.3693 17.262ZM12.6407 12.336C12.9907 11.986 13.4062 11.7083 13.8635 11.5189C14.3208 11.3294 14.811 11.232 15.306 11.232C15.801 11.232 16.2911 11.3294 16.7485 11.5189C17.2058 11.7083 17.6213 11.986 17.9713 12.336C18.3213 12.686 18.599 13.1015 18.7884 13.5588C18.9778 14.0162 19.0753 14.5063 19.0753 15.0013C19.0753 15.4963 18.9778 15.9865 18.7884 16.4438C18.599 16.9011 18.3213 17.3166 17.9713 17.6666C17.2644 18.3735 16.3057 18.7707 15.306 18.7707C14.3063 18.7707 13.3475 18.3735 12.6407 17.6666C11.9338 16.9597 11.5366 16.001 11.5366 15.0013C11.5366 14.0016 11.9338 13.0429 12.6407 12.336ZM19.9113 11.7933C19.9981 11.7115 20.0675 11.6131 20.1155 11.504C20.1636 11.3948 20.1892 11.2771 20.1909 11.1579C20.1927 11.0387 20.1705 10.9203 20.1256 10.8098C20.0808 10.6994 20.0143 10.599 19.93 10.5147C19.8457 10.4303 19.7453 10.3638 19.6348 10.319C19.5243 10.2742 19.4059 10.252 19.2867 10.2537C19.1675 10.2554 19.0498 10.2811 18.9407 10.3291C18.8315 10.3771 18.7331 10.4466 18.6513 10.5333C18.4922 10.702 18.4051 10.926 18.4085 11.1579C18.4118 11.3898 18.5055 11.6112 18.6694 11.7752C18.8334 11.9392 19.0548 12.0328 19.2867 12.0362C19.5186 12.0395 19.7426 11.9524 19.9113 11.7933Z" fill="white"/>
</g>
<circle cx="15.3057" cy="15.001" r="14.5" stroke="white" stroke-opacity="0.5"/>
<defs>
<clipPath id="clip0_195_5090">
<rect width="16" height="16" fill="white" transform="translate(7.30566 7.00098)"/>
</clipPath>
</defs>
</svg>
