<svg width="160" height="22" viewBox="0 0 160 22" fill="none" xmlns="http://www.w3.org/2000/svg">
<path d="M5.20197 10.2001H5.79301C7.1535 10.2001 8.31486 10.2202 8.04552 12.0727C7.78482 13.8655 6.53023 13.8655 5.25952 13.8655H4.6679L5.20197 10.2001ZM0 21.8199H3.51057L4.21958 16.946H6.20795C9.27135 16.946 11.2108 15.4255 11.7167 11.9551C12.2064 8.58272 10.4143 7.12079 7.51203 7.12079H2.13857L0 21.8199Z" fill="white"/>
<path d="M26.3443 7.82709L25.4494 13.9779H25.4794C26.2315 13.0762 27.047 12.6578 28.0973 12.6578C30.0201 12.6578 30.7504 14.043 30.4459 16.1354L29.7105 21.1901H27.0183L27.6352 16.9562C27.775 15.99 27.7871 14.9926 26.7069 14.9926C25.6417 14.9926 25.1559 15.99 25.0161 16.9562L24.3997 21.1901H21.7075L23.6527 7.82709H26.3443Z" fill="white"/>
<path d="M36.0698 15.2028C37.1644 15.2028 37.6766 16.0567 37.5281 17.0695C37.3756 18.116 36.6234 18.9215 35.5282 18.9215C34.4342 18.9215 33.9157 18.116 34.0676 17.0695C34.2144 16.0561 34.9752 15.2028 36.0698 15.2028ZM36.4392 12.6583C33.9991 12.6583 31.6378 14.252 31.2263 17.0689C30.8166 19.887 32.733 21.4654 35.1582 21.4654C37.5989 21.4654 39.9602 19.8711 40.3682 17.0689C40.7785 14.2526 38.8805 12.6583 36.4392 12.6583Z" fill="white"/>
<path d="M44.4287 13.9613H44.4581C45.2287 13.0442 46.0689 12.6583 47.0449 12.6583C48.139 12.6583 49.016 13.1411 49.4039 14.2349C50.0715 13.2055 51.1713 12.6583 52.2078 12.6583C54.1305 12.6583 54.5967 14.0257 54.321 15.9261L53.5544 21.1906H50.8622L51.436 17.2468C51.5598 16.3935 51.7934 14.9925 50.6551 14.9925C49.412 14.9925 49.1829 16.2635 49.0402 17.2468L48.4659 21.1906H45.7737L46.3474 17.2468C46.4809 16.3279 46.6847 14.9286 45.4871 14.9286C44.2883 14.9286 44.0851 16.3279 43.951 17.2468L43.3773 21.1906H40.6851L41.8879 12.9319H44.5789L44.4287 13.9613Z" fill="white"/>
<path d="M57.9685 15.8635C58.2551 15.0084 58.9722 14.5587 59.7554 14.5587C60.48 14.5587 61.071 15.0728 61.09 15.8635H57.9685ZM63.3874 17.2474C63.7972 14.4293 62.5317 12.6583 59.8987 12.6583C57.4281 12.6583 55.4564 14.317 55.0559 17.0689C54.6409 19.9195 56.2949 21.4654 58.8087 21.4654C60.5404 21.4654 62.3699 20.579 63.0824 18.6313H60.4938C60.1191 19.1791 59.6731 19.3883 59.0976 19.3883C57.9875 19.3883 57.5046 18.7442 57.6779 17.5523H63.3431L63.3874 17.2474Z" fill="white"/>
<path d="M22.0375 12.1615L22.6728 7.80054C21.9679 7.46076 21.2473 7.22971 20.4698 7.13812L19.9473 10.6819C20.8335 10.842 21.6007 11.3449 22.0375 12.1615Z" fill="white"/>
<path d="M21.3598 16.8201C20.6709 17.5741 19.7466 18.0924 18.8293 18.2507L18.3062 21.7957C19.0831 21.7112 19.803 21.4777 20.7244 21.1835L21.3598 16.8201Z" fill="white"/>
<path d="M18.3061 21.7957L18.8292 18.2502C18.6393 18.2827 18.4488 18.3046 18.2612 18.3046C16.1802 18.3046 15.0142 16.7091 15.3359 14.5002C15.6519 12.3286 17.2823 10.6203 19.3287 10.6203C19.54 10.6203 19.7454 10.6451 19.9474 10.6811L20.47 7.1374C20.2271 7.10903 19.9779 7.09308 19.7218 7.09308C17.9142 7.09308 15.9655 7.94695 14.4974 9.35688C13.0702 10.7314 12.1378 12.5697 11.8599 14.4813C11.5572 16.5614 11.941 18.3802 13.1524 19.773C14.2908 21.0896 15.8884 21.8329 17.6799 21.8329C17.8957 21.8329 18.1023 21.8176 18.3061 21.7957Z" fill="white"/>
<path d="M41.5818 7.68373C42.1061 7.68373 42.407 8.19783 42.334 8.70661C42.2655 9.1823 41.7878 9.78858 41.2796 9.78858C40.7715 9.78858 40.4676 9.1823 40.5355 8.70661C40.6086 8.19783 41.0569 7.68373 41.5818 7.68373ZM41.1927 10.3943C42.0871 10.3943 42.8191 9.63376 42.9486 8.73202C43.0741 7.85096 42.563 7.07922 41.6681 7.07922C40.7738 7.07922 40.0406 7.85096 39.9145 8.73202C39.7845 9.63376 40.2973 10.3943 41.1927 10.3943Z" fill="white"/>
<path d="M45.5111 7.07812H45.9428L47.2411 9.27811H47.2503L47.5536 7.16144H48.1515L47.6906 10.3719H47.2589L45.96 8.17132H45.9525L45.6452 10.3093H45.0479L45.5111 7.07812Z" fill="white"/>
<path d="M50.8432 9.77482H51.688L51.6115 10.3096H50.167L50.6205 7.16119H51.2167L50.8432 9.77482Z" fill="white"/>
<path d="M54.4344 10.3102H53.8364L54.2882 7.16235H54.8873L54.4344 10.3102Z" fill="white"/>
<path d="M57.3672 7.07812H57.7977L59.0966 9.27811H59.1052L59.4085 7.16144H60.0064L59.5455 10.3719H59.1144L57.8161 8.17132H57.8086L57.5007 10.3093H56.9033L57.3672 7.07812Z" fill="white"/>
<path d="M62.9967 7.69597L62.8971 8.38912H63.8496L63.7731 8.92331H62.8206L62.698 9.77482H63.6867L63.6096 10.3096H62.0229L62.4759 7.16119H64.0614L63.9848 7.69597H62.9967Z" fill="white"/>
<path d="M122.63 15.0163C122.425 16.152 122.011 17.4609 121.387 18.9406L119.838 18.4253C120.476 16.8664 120.884 15.5847 121.06 14.5802L122.63 15.0163ZM125.387 13.9727H120.582C120.432 13.9727 120.358 13.8941 120.358 13.7352V0.977853C120.371 0.833079 120.446 0.760396 120.582 0.760396H125.387C125.55 0.773987 125.631 0.84667 125.631 0.977853V13.7352C125.631 13.8941 125.55 13.9727 125.387 13.9727ZM124.014 4.65927V2.38483C124.014 2.34465 123.987 2.32455 123.933 2.32455H122.036C121.995 2.32455 121.974 2.34465 121.974 2.38483V4.65927H124.014ZM124.014 6.22343H121.974V8.53392H124.014V6.22343ZM121.974 10.0981V12.3294C121.974 12.382 121.995 12.4086 122.036 12.4086H123.933C123.987 12.4086 124.014 12.382 124.014 12.3294V10.0981H121.974ZM124.769 14.699C125.23 15.5452 125.631 16.6088 125.971 17.8905L124.504 18.3656C124.097 17.0183 123.702 15.9807 123.322 15.2538L124.769 14.699ZM128.889 18.8703H127.272V16.1148H126.171V14.7191H127.272V9.44393C127.272 9.20697 127.394 9.08761 127.638 9.08761H131.913V7.956H126.419V6.56025H129.475V5.40501H127.152V4.00926H129.475V2.95034H126.582V1.55459H129.475V0.246888H131.092V1.55459H134.538V0.167114H136.155V1.55459H138.927V2.95034H136.155V4.00926H138.519V5.40501H136.155V6.56025H139.253V7.956H133.53V9.08761H137.876C138.135 9.08761 138.265 9.20697 138.265 9.44393V14.7191H139.243V16.1148H138.265V17.1855C138.265 17.819 138.012 18.3018 137.508 18.6321C136.839 19.0416 135.683 19.1007 134.039 18.8106L133.958 17.0863C135.181 17.403 135.934 17.4627 136.22 17.2641C136.504 17.0792 136.648 16.8416 136.648 16.5509V16.1148H128.889V18.8703ZM131.913 10.4834H129.01C128.93 10.4834 128.889 10.5235 128.889 10.6039V11.9512H131.913V10.4834ZM131.913 13.3475H128.889V14.7191H131.913V13.3475ZM134.538 2.95034H131.092V4.00926H134.538V2.95034ZM134.538 5.40501H131.092V6.56025H134.538V5.40501ZM133.53 11.9512H136.648V10.6039C136.648 10.5235 136.6 10.4834 136.505 10.4834H133.53V11.9512ZM136.648 13.3475H133.53V14.7191H136.648V13.3475Z" fill="white"/>
<path d="M144.481 5.67077H143.096C142.837 7.41516 142.606 8.60409 142.402 9.23814L140.67 9.00059C141.336 6.91229 141.668 4.55748 141.668 1.93617V0.885521H143.356V1.93617C143.343 2.42486 143.309 3.0926 143.255 3.93761H144.481V0.171692H146.263V3.93761H148.056V5.67077H146.263V10.586C146.874 10.2297 147.411 9.90588 147.873 9.61456L148.892 11.0221C148.13 11.5108 147.255 11.9936 146.263 12.4693V18.9906H144.481V13.2818C143.571 13.6659 142.64 14.0417 141.69 14.4116L140.731 12.8457C142.253 12.3174 143.503 11.8482 144.481 11.4387V5.67077ZM154.05 4.29866C153.955 5.13126 153.839 5.92428 153.703 6.6771C153.079 9.41246 151.381 12.1744 148.609 14.9624L147.081 14.0311C149.064 12.0751 150.444 10.3242 151.218 8.77841C151.733 7.70766 152.1 6.21501 152.318 4.29866H150.831C150.206 6.05605 149.527 7.47012 148.792 8.54027L147.081 7.88612C148.698 5.49468 149.669 2.94191 149.995 0.227238L151.748 0.464787C151.598 1.21821 151.455 1.91844 151.32 2.56609H159.348C159.484 2.56609 159.599 2.59209 159.694 2.64468C159.898 2.76287 160 3.06482 160 3.55056C159.986 6.52051 159.953 9.15482 159.898 11.4541C159.775 15.2862 159.062 17.638 157.759 18.5102C156.957 19.0515 155.429 19.019 153.173 18.4115L153.092 16.3894C155.022 17.0235 156.237 17.1623 156.74 16.8054C157.093 16.5419 157.412 16.026 157.698 15.2602C157.955 14.4276 158.105 13.0726 158.146 11.1964C158.281 6.88865 158.281 4.63548 158.146 4.43753C158.091 4.34475 158.016 4.29866 157.922 4.29866H157.065C156.997 7.00802 156.373 9.73629 155.191 12.4846C154.009 14.7975 152.29 16.7463 150.036 18.3318L148.63 17.0637C152.908 14.632 155.129 10.3774 155.293 4.29866H154.05Z" fill="white"/>
<path d="M118.202 14.4584H99.9653L100.239 13.4154H118.475L118.202 14.4584Z" fill="white"/>
<path d="M117.65 16.5439H99.4126L99.6842 15.5021H117.922L117.65 16.5439Z" fill="white"/>
<path d="M117.104 18.6358H98.8662L99.139 17.5923H117.377L117.104 18.6358Z" fill="white"/>
<path d="M78.8886 4.27443C78.9812 3.91928 78.9617 3.65987 78.8333 3.49737C78.7038 3.33309 78.461 3.25214 78.1036 3.25214C77.7168 3.25214 77.4256 3.32659 77.2294 3.4761C77.0326 3.6256 76.8852 3.8921 76.7851 4.27443L76.159 6.9436H69.9827L70.2474 5.66249C70.7533 3.71896 71.6758 2.34272 73.015 1.53316C74.353 0.725374 76.3339 0.321777 78.9582 0.321777C81.4104 0.321777 83.1404 0.717101 84.1469 1.50952C85.1535 2.30135 85.4476 3.49796 85.0286 5.10112C84.54 6.97315 82.398 9.42309 78.6048 12.4492C77.8665 13.049 77.3094 13.5034 76.9313 13.8112C75.5708 14.9216 74.2604 16.1022 73.7568 16.8096C73.3384 17.3975 73.1508 17.8395 73.1508 17.8395L81.7471 17.8431L80.7929 21.4961H66.0698L66.9601 18.0854C67.1805 17.238 67.6271 16.3977 68.2982 15.5615C68.9692 14.7242 70.1852 13.5914 71.9457 12.1626C72.3422 11.8453 72.9068 11.3944 73.6423 10.8123C76.6222 8.43921 78.2302 6.79587 78.4673 5.88881L78.8886 4.27443Z" fill="white"/>
<path d="M88.9006 21.4921L90.1914 16.5437H81.2412L82.0567 13.4119L90.9804 0.762695H99.4582L96.4287 12.366L91.3223 12.3713L94.129 4.08779H93.5299L87.5591 13.4119H99.1537L98.3394 16.5437H95.341L94.0479 21.4921H88.9006Z" fill="white"/>
<path d="M100.509 12.3677L103.536 0.762695H109.041L107.588 6.33209H107.675C108.237 5.74827 108.872 5.31749 109.582 5.03917C110.292 4.76262 111.092 4.62434 111.987 4.62434C113.189 4.62434 114.031 4.8613 114.509 5.33699C114.987 5.81209 115.102 6.51942 114.857 7.46134L113.578 12.3677H108.027L108.992 8.6674C109.092 8.28449 109.084 8.02685 108.969 7.89034C108.856 7.75443 108.612 7.68707 108.242 7.68707C107.899 7.68707 107.625 7.76625 107.419 7.92521C107.213 8.08535 107.066 8.33176 106.978 8.6674L106.013 12.3677H100.509Z" fill="white"/>
</svg>
